<?xml version="1.0" encoding="UTF-8"?><svg id="Layer_1" xmlns="http://www.w3.org/2000/svg" viewBox="0 0 1000 422.05"><defs><style>.cls-1,.cls-2,.cls-3{stroke-width:0px;}.cls-2{fill:#844896;}.cls-3{fill:#eaeaea;}</style></defs><rect class="cls-3" x="0" width="1000" height="422.05"/><g id="CVLT_Logo_RGB_R_Croc"><path class="cls-2" d="m175.3,136.17l-66.1,38.14v73.39l66.1,38.17,66.1-38.17v-73.39l-66.1-38.14Zm54.67,104.93l-54.67,31.57-54.64-31.57v-60.19l54.64-31.54,54.67,31.57v60.15h0Z"/><path class="cls-2" d="m171.5,213.22l-40.67-23.5v45.48l40.67,23.5v-45.48Z"/><path class="cls-2" d="m214.75,238.16l-35.59-20.54v41.08l35.59-20.55Z"/><path class="cls-2" d="m214.73,183.87l-39.42-22.74-39.42,22.74,39.42,22.76,39.42-22.76Z"/><path class="cls-1" d="m649.94,249.56h-12.47l-23.93-55.84h12.7l17.53,41.9,17.53-41.9h12.69l-24.04,55.84Z"/><path class="cls-1" d="m314.82,239.78c-15.17,0-27.07-12.02-27.07-27.86s11.91-27.86,27.07-27.86c9.71,0,17.97,4.28,22.47,12.87l9.33-8.01c-5.08-7.77-13.02-13.11-22.49-15.21-26.37-5.84-51.27,15.99-48.25,42.83,2.22,19.76,18.6,34.59,38.95,34.59,13.6,0,25.34-6.01,31.97-16.74l-9.39-7.7c-4.47,8.74-12.78,13.1-22.58,13.1Z"/><path class="cls-1" d="m382.11,192.6c-16.51,0-30,11.8-30,29.1s13.48,29.21,30,29.21,29.77-11.91,29.77-29.21-13.37-29.1-29.77-29.1Zm0,48.2c-9.77,0-18.54-7.53-18.54-19.1s8.76-19.1,18.54-19.1,18.42,7.53,18.42,19.1-8.88,19.1-18.42,19.1Z"/><path class="cls-1" d="m488.84,192.26c-9.15,0-16.2,3.88-20.7,10.1-.04.06-.13.05-.16,0-3.62-6.43-10.54-10.09-18.46-10.09s-13.65,2.84-17.69,7.66c-.06.07-.17.03-.17-.06v-5.92c0-.06-.04-.1-.1-.1h-11.48c-.06,0-.1.04-.1.1v55.52c0,.06.04.1.1.1h11.48c.06,0,.1-.04.1-.1v-27.54c0-12.47,5.84-18.87,14.83-18.87,7.19,0,12.58,5.17,12.58,13.37v33.04c0,.06.04.1.1.1h11.48c.06,0,.1-.04.1-.1v-27.54c0-12.47,5.95-18.87,15.05-18.87,7.19,0,12.58,5.17,12.58,13.37v33.04c0,.06.04.1.1.1h11.37c.06,0,.1-.04.1-.1v-35.4c0-13.14-9.55-21.79-21.12-21.79Z"/><path class="cls-1" d="m590.18,192.26c-9.15,0-16.2,3.88-20.7,10.1-.04.06-.13.05-.16,0-3.62-6.43-10.54-10.09-18.46-10.09s-13.65,2.84-17.69,7.66c-.06.07-.17.03-.17-.06v-5.92c0-.06-.04-.1-.1-.1h-11.48c-.06,0-.1.04-.1.1v55.52c0,.06.04.1.1.1h11.48c.06,0,.1-.04.1-.1v-27.54c0-12.47,5.84-18.87,14.83-18.87,7.19,0,12.58,5.17,12.58,13.37v33.04c0,.06.04.1.1.1h11.48c.06,0,.1-.04.1-.1v-27.54c0-12.47,5.95-18.87,15.05-18.87,7.19,0,12.58,5.17,12.58,13.37v33.04c0,.06.04.1.1.1h11.37c.06,0,.1-.04.1-.1v-35.4c0-13.14-9.55-21.79-21.12-21.79Z"/><path class="cls-1" d="m732.13,193.83h-11.48c-.06,0-.1.04-.1.1v6.06c0,.09-.1.13-.17.07-4.82-4.95-11.73-7.8-20.05-7.8-14.6,0-27.64,11.91-27.64,29.43s13.03,29.43,27.64,29.43c8.33,0,15.23-2.85,20.05-7.8.06-.06.17-.02.17.07v6.06c0,.06.04.1.1.1h11.48c.06,0,.1-.04.1-.1v-55.52c0-.06-.04-.1-.1-.1Zm-29.9,46.96c-10.22,0-18.2-7.3-18.2-19.1s7.98-19.1,18.2-19.1c9.21,0,18.31,7.41,18.31,19.1s-9.1,19.1-18.31,19.1Z"/><path class="cls-1" d="m796.51,193.83h-11.48c-.06,0-.1.04-.1.1v25.63c0,14.04-6.52,20.78-16.52,20.78-8.09,0-13.37-6.18-13.37-15.28v-31.13c0-.06-.04-.1-.1-.1h-11.48c-.06,0-.1.04-.1.1v33.49c0,14.04,8.87,23.7,22.36,23.7,8.1,0,14.55-2.96,19.04-8.22.06-.07.17-.03.17.06v6.49c0,.06.04.1.1.1h11.48c.06,0,.1-.04.1-.1v-55.52c0-.06-.04-.1-.1-.1Z"/><path class="cls-1" d="m834.25,238.48c-2.22.98-4.75,1.64-6.63,1.64-4.27,0-7.19-2.7-7.19-6.52v-65.81c0-.06-.04-.1-.1-.1h-11.48c-.06,0-.1.04-.1.1v66.27c0,9.44,7.68,17.15,17.12,17.06,4.86-.05,7.82-1.35,10.67-2.88.04-.02.06-.07.05-.11l-2.2-9.58c-.01-.06-.08-.09-.13-.07Z"/><path class="cls-1" d="m873.54,237.2c-.02-.06-.09-.08-.14-.05-2.9,1.87-6.45,2.97-9.33,2.97-5.51,0-9.21-3.37-9.21-10.34v-26.19c0-.06.04-.1.1-.1h18.9c.06,0,.1-.04.1-.1v-9.46c0-.06-.04-.1-.1-.1h-18.9c-.06,0-.1-.04-.1-.1v-17.1c0-.06-.04-.1-.1-.1h-11.48c-.06,0-.1.04-.1.1v17.1c0,.06-.04.1-.1.1h-11.82c-.06,0-.1.04-.1.1v9.46c0,.06.04.1.1.1h11.82c.06,0,.1.04.1.1v26.97c0,13.82,8.09,20.56,20.11,20.56,4.7,0,8.5-1.11,13.74-4.22.04-.02.06-.08.04-.12l-3.52-9.58Z"/><path class="cls-1" d="m886.26,175.11c0,4.37-3.43,7.8-7.89,7.8s-7.94-3.43-7.94-7.8,3.52-7.7,7.94-7.7,7.89,3.43,7.89,7.7Zm-13.86,0c0,3.43,2.54,6.15,6.01,6.15s5.87-2.72,5.87-6.11-2.49-6.2-5.92-6.2-5.97,2.77-5.97,6.15Zm4.74,4.04h-1.79v-7.7c.7-.14,1.69-.23,2.96-.23,1.46,0,2.11.23,2.68.56.42.33.75.94.75,1.69,0,.85-.66,1.5-1.6,1.79v.09c.75.28,1.17.85,1.41,1.88.23,1.17.38,1.64.56,1.93h-1.93c-.23-.28-.38-.99-.61-1.88-.14-.85-.61-1.22-1.6-1.22h-.85v3.1Zm.05-4.37h.85c.99,0,1.79-.33,1.79-1.13,0-.7-.52-1.17-1.64-1.17-.47,0-.8.05-.99.09v2.21Z"/></g></svg>